<svg xmlns="http://www.w3.org/2000/svg" width="2560" height="1280" fill="none" viewBox="0 0 2560 1280"><g clip-path="url(#a)"><g clip-path="url(#b)"><mask id="c" fill="#fff"><path d="M0 0h1280v1280H0z"/></mask><path fill="#21272a" d="M0 0h1280v1280H0z"/><path fill="#343a3f" stroke="#697077" stroke-width="4" d="M560.828 640 640 560.828 719.172 640 640 719.172zm-482-400L240 78.83 401.17 240 240 401.172z"/><path fill="#4d5358" stroke="#697077" stroke-width="4" d="M160.828 240 240 160.828 319.172 240 240 319.172z"/><circle cx="240" cy="1040" r="158" fill="#343a3f" stroke="#697077" stroke-width="4"/><circle cx="240" cy="1040" r="78" fill="#4d5358" stroke="#697077" stroke-width="4"/><circle cx="880" cy="400" r="78" fill="#343a3f" stroke="#697077" stroke-width="4"/><circle cx="1280" cy="160" r="78" fill="#343a3f" stroke="#697077" stroke-width="4"/><path stroke="#697077" stroke-width="4" d="M1200.5 160H672c-17.673 0-32 14.327-32 32v368M240 880V672c0-17.673 14.327-32 32-32h288M240 400v208c0 17.673 14.327 32 32 32h288m160 0h421.5M640 720v128c0 17.673 14.327 32 32 32h129"/><path fill="#343a3f" stroke="#697077" stroke-width="4" d="M802 802h156v156H802z"/><path stroke="#697077" stroke-width="4" d="M640 836v252c0 17.67 14.327 32 32 32h368.5"/><path fill="#343a3f" stroke="#697077" stroke-width="4" d="M1416.56 561.154v157.691L1280 797.689l-136.56-78.844V561.154L1280 482.31z"/><path fill="#4d5358" stroke="#697077" stroke-width="4" d="M1347.28 601.154v77.691L1280 717.689l-67.28-38.844v-77.691L1280 562.31z"/><path stroke="#697077" stroke-width="4" d="M959.5 880H1088c17.67 0 32 14.327 32 32v128m80 80h160M640 560V432c0-17.673 14.327-32 32-32h128"/><path fill="#343a3f" stroke="#697077" stroke-width="4" d="M1199.17 1120h-158.34l79.17-79.17z"/></g><path fill="#4d5358" d="M0 0v-2h-2v2zm0 1280h-2v2h2zM0 0v2h1280v-4H0zm1280 1280v-2H0v4h1280zM0 1280h2V0h-4v1280z" mask="url(#c)"/><g clip-path="url(#d)"><mask id="p" fill="#fff"><path d="M1280 0h1280v1280H1280z"/></mask><path fill="#001d6c" d="M1280 0h1280v1280H1280z"/><path stroke="#4589ff" stroke-width="4" d="M1360 160h528c17.67 0 32 14.327 32 32v368m400-160v208c0 17.673-14.33 32-32 32h-288m320 240V672c0-17.673-14.33-32-32-32h-288m-581.5 0H1840m80 80v128c0 17.673-14.33 32-32 32h-129"/><path stroke="#4589ff" stroke-width="4" d="M1920 836v252c0 17.67-14.33 32-32 32h-368.5m81-240H1472c-17.67 0-32 14.327-32 32v128m480-480V432c0-17.673-14.33-32-32-32h-128"/><path fill="url(#e)" stroke="#4589ff" stroke-width="4" d="M2.828 0h227.931v227.931H2.828z" transform="rotate(225 1293.392 72.306)scale(-1 1)"/><path fill="url(#f)" stroke="#4589ff" stroke-width="4" d="M2.828 0h111.966v111.966H2.828z" transform="rotate(225 1334.392 55.323)scale(-1 1)"/><path fill="url(#g)" stroke="#4589ff" stroke-width="4" d="M1840.83 640h111.966v111.966H1840.83z" transform="rotate(-45 1840.83 640)"/><circle cx="2320" cy="240" r="158" fill="url(#h)" stroke="#4589ff" stroke-width="4"/><circle cx="2320" cy="240" r="78" fill="url(#i)" stroke="#4589ff" stroke-width="4"/><circle cx="1680" cy="880" r="78" fill="url(#j)" stroke="#4589ff" stroke-width="4"/><circle cx="1280" cy="160" r="78" fill="url(#k)" stroke="#4589ff" stroke-width="4"/><path fill="url(#l)" stroke="#4589ff" stroke-width="4" d="M1602 322h156v156h-156z"/><path fill="url(#m)" stroke="#4589ff" stroke-width="4" d="M1416.56 561.154v157.691L1280 797.689l-136.56-78.844V561.154L1280 482.31z"/><path fill="url(#n)" stroke="#4589ff" stroke-width="4" d="M1347.28 601.154v77.691L1280 717.689l-67.28-38.844v-77.691L1280 562.31z"/><path stroke="#4589ff" stroke-width="4" d="M1200 1120h160"/><path fill="url(#o)" stroke="#4589ff" stroke-width="4" d="M1519.17 1120h-158.34l79.17-79.17z"/></g><path fill="#0043ce" d="M2560 0h2v-2h-2zm0 1280v2h2v-2zM1280 0v2h1280v-4H1280zm1280 0h-2v1280h4V0zm0 1280v-2H1280v4h1280z" mask="url(#p)"/></g><defs><linearGradient id="e" x1="231.931" x2="0" y1="231.931" y2="0" gradientUnits="userSpaceOnUse"><stop stop-color="#002d9c"/><stop offset="1" stop-color="#0043ce"/></linearGradient><linearGradient id="f" x1="115.966" x2="0" y1="115.966" y2="0" gradientUnits="userSpaceOnUse"><stop stop-color="#0043ce"/><stop offset="1" stop-color="#0f62fe"/></linearGradient><linearGradient id="g" x1="1953.97" x2="1838" y1="755.965" y2="640" gradientUnits="userSpaceOnUse"><stop stop-color="#002d9c"/><stop offset="1" stop-color="#0043ce"/></linearGradient><linearGradient id="h" x1="2480" x2="2160" y1="240" y2="240" gradientUnits="userSpaceOnUse"><stop stop-color="#002d9c"/><stop offset="1" stop-color="#0043ce"/></linearGradient><linearGradient id="i" x1="2400" x2="2240" y1="240" y2="240" gradientUnits="userSpaceOnUse"><stop stop-color="#0043ce"/><stop offset="1" stop-color="#0f62fe"/></linearGradient><linearGradient id="j" x1="1760" x2="1600" y1="880" y2="880" gradientUnits="userSpaceOnUse"><stop stop-color="#0043ce"/><stop offset="1" stop-color="#0f62fe"/></linearGradient><linearGradient id="k" x1="1360" x2="1200" y1="160" y2="160" gradientUnits="userSpaceOnUse"><stop stop-color="#0043ce"/><stop offset="1" stop-color="#0f62fe"/></linearGradient><linearGradient id="l" x1="1760" x2="1600" y1="400" y2="400" gradientUnits="userSpaceOnUse"><stop stop-color="#002d9c"/><stop offset="1" stop-color="#0043ce"/></linearGradient><linearGradient id="m" x1="1440" x2="1120" y1="640" y2="640" gradientUnits="userSpaceOnUse"><stop stop-color="#002d9c"/><stop offset="1" stop-color="#0043ce"/></linearGradient><linearGradient id="n" x1="1360" x2="1200" y1="640" y2="640" gradientUnits="userSpaceOnUse"><stop stop-color="#0043ce"/><stop offset="1" stop-color="#0f62fe"/></linearGradient><linearGradient id="o" x1="1524" x2="1356" y1="1080" y2="1080" gradientUnits="userSpaceOnUse"><stop stop-color="#002d9c"/><stop offset="1" stop-color="#0043ce"/></linearGradient><clipPath id="a"><path fill="#fff" d="M0 0h2560v1280H0z"/></clipPath><clipPath id="b"><path fill="#fff" d="M0 0h1280v1280H0z"/></clipPath><clipPath id="d"><path fill="#fff" d="M1280 0h1280v1280H1280z"/></clipPath></defs></svg>